<svg xmlns="http://www.w3.org/2000/svg" fill="#d6d6d6" viewBox="0 0 512 512"  xmlns:v="https://vecta.io/nano"><path d="M191.142 162.858L68.285 40H147c11.046 0 20-8.954 20-20s-8.954-20-20-20H60C26.916 0 0 26.916 0 60v87c0 11.046 8.954 20 20 20s20-8.954 20-20V68.285l122.858 122.858C166.763 195.048 171.881 197 177 197s10.237-1.952 14.142-5.857c7.811-7.811 7.811-20.475 0-28.285zm0 158c-7.811-7.81-20.474-7.811-28.284-.001L40 443.715V365c0-11.046-8.954-20-20-20s-20 8.954-20 20v87c0 33.084 26.916 60 60 60h87c11.046 0 20-8.954 20-20s-8.954-20-20-20H68.285l122.857-122.857c7.811-7.811 7.811-20.475 0-28.285zM492 345c-11.046 0-20 8.954-20 20v78.715L349.142 320.857c-7.811-7.811-20.474-7.811-28.284 0s-7.811 20.475 0 28.285L443.715 472H365c-11.046 0-20 8.954-20 20s8.954 20 20 20h87c33.084 0 60-26.916 60-60v-87c0-11.046-8.954-20-20-20zM452 0h-87c-11.046 0-20 8.954-20 20s8.954 20 20 20h78.715L320.858 162.857c-7.811 7.811-7.811 20.475 0 28.285C324.763 195.048 329.881 197 335 197s10.237-1.952 14.142-5.857L472 68.285V147c0 11.046 8.954 20 20 20s20-8.954 20-20V60c0-33.084-26.916-60-60-60z"/></svg>